<svg xmlns="http://www.w3.org/2000/svg" xmlns:xlink="http://www.w3.org/1999/xlink" width="1920" height="2953" viewBox="0 0 1920 2953">
  <defs>
    <clipPath id="clip-Web_1920_1">
      <rect width="1920" height="2953"/>
    </clipPath>
  </defs>
  <g id="Web_1920_1" data-name="Web 1920 – 1" clip-path="url(#clip-Web_1920_1)">
    <rect width="1920" height="2953" fill="#fff"/>
    <g id="Retângulo_1" data-name="Retângulo 1" fill="rgba(30,30,30,0.79)" stroke="#707070" stroke-width="1">
      <rect width="1920" height="120" stroke="none"/>
      <rect x="0.5" y="0.5" width="1919" height="119" fill="none"/>
    </g>
    <g id="Retângulo_2" data-name="Retângulo 2" transform="translate(900 20)" fill="#fff" stroke="#e20000" stroke-width="2" stroke-dasharray="5">
      <rect width="120" height="80" stroke="none"/>
      <rect x="1" y="1" width="118" height="78" fill="none"/>
    </g>
    <text id="LOGO" transform="translate(922 71)" fill="#444" font-size="29" font-family="SegoeUI, Segoe UI"><tspan x="0" y="0">LOGO</tspan></text>
    <line id="Linha_1" data-name="Linha 1" x2="60" transform="translate(1840 40)" fill="none" stroke="#fff" stroke-linecap="round" stroke-width="5"/>
    <line id="Linha_2" data-name="Linha 2" x2="60" transform="translate(1840 60)" fill="none" stroke="#fff" stroke-linecap="round" stroke-width="5"/>
    <line id="Linha_3" data-name="Linha 3" x2="60" transform="translate(1840 80)" fill="none" stroke="#fff" stroke-linecap="round" stroke-width="5"/>
    <g id="Retângulo_3" data-name="Retângulo 3" transform="translate(46 120)" fill="#afafaf" stroke="#810000" stroke-width="3" stroke-dasharray="7">
      <rect width="1808" height="900" stroke="none"/>
      <rect x="1.5" y="1.5" width="1805" height="897" fill="none"/>
    </g>
    <line id="Linha_4" data-name="Linha 4" x2="1920" transform="translate(0.5 1080.5)" fill="none" stroke="#707070" stroke-width="3" stroke-dasharray="10"/>
    <g id="Retângulo_4" data-name="Retângulo 4" transform="translate(46 1081)" fill="#fff" stroke="#707070" stroke-width="2">
      <rect width="896" height="550" stroke="none"/>
      <rect x="1" y="1" width="894" height="548" fill="none"/>
    </g>
    <g id="Retângulo_5" data-name="Retângulo 5" transform="translate(960 1731)" fill="#fff" stroke="#707070" stroke-width="2">
      <rect width="896" height="550" stroke="none"/>
      <rect x="1" y="1" width="894" height="548" fill="none"/>
    </g>
    <g id="Retângulo_7" data-name="Retângulo 7" transform="translate(46 2381)" fill="#fff" stroke="#707070" stroke-width="2">
      <rect width="896" height="550" stroke="none"/>
      <rect x="1" y="1" width="894" height="548" fill="none"/>
    </g>
    <text id="IMG" transform="translate(429 1371)" fill="#444" font-size="70" font-family="SegoeUI, Segoe UI"><tspan x="0" y="0">IMG</tspan></text>
    <text id="IMG-2" data-name="IMG" transform="translate(1343 2035)" fill="#444" font-size="70" font-family="SegoeUI, Segoe UI"><tspan x="0" y="0">IMG</tspan></text>
    <text id="IMG-3" data-name="IMG" transform="translate(429 2685)" fill="#444" font-size="70" font-family="SegoeUI, Segoe UI"><tspan x="0" y="0">IMG</tspan></text>
    <g id="Retângulo_8" data-name="Retângulo 8" transform="translate(1072 2381)" fill="#fff" stroke="#707070" stroke-width="4" stroke-dasharray="15">
      <rect width="782" height="550" stroke="none"/>
      <rect x="2" y="2" width="778" height="546" fill="none"/>
    </g>
    <g id="Retângulo_9" data-name="Retângulo 9" transform="translate(46 1731)" fill="#fff" stroke="#707070" stroke-width="4" stroke-dasharray="15">
      <rect width="782" height="550" stroke="none"/>
      <rect x="2" y="2" width="778" height="546" fill="none"/>
    </g>
    <g id="Retângulo_10" data-name="Retângulo 10" transform="translate(1072 1081)" fill="#fff" stroke="#707070" stroke-width="4" stroke-dasharray="15">
      <rect width="782" height="550" stroke="none"/>
      <rect x="2" y="2" width="778" height="546" fill="none"/>
    </g>
    <text id="TXT" transform="translate(1412 1385)" fill="#444" font-size="70" font-family="SegoeUI, Segoe UI"><tspan x="0" y="0">TXT</tspan></text>
    <text id="TXT-2" data-name="TXT" transform="translate(386 2035)" fill="#444" font-size="70" font-family="SegoeUI, Segoe UI"><tspan x="0" y="0">TXT</tspan></text>
    <text id="TXT-3" data-name="TXT" transform="translate(1414 2685)" fill="#444" font-size="70" font-family="SegoeUI, Segoe UI"><tspan x="0" y="0">TXT</tspan></text>
  </g>
</svg>
